<svg width="18" height="20" viewBox="0 0 18 20" fill="none" xmlns="http://www.w3.org/2000/svg">
<g filter="url(#filter0_d_3_4)">
<path d="M12.5797 1.00901C12.5414 0.966258 11.1633 1.02588 9.96404 2.32751C8.76479 3.62801 8.94929 5.11976 8.97629 5.15801C9.00329 5.19626 10.6863 5.25588 11.7607 3.74276C12.835 2.22963 12.6179 1.05288 12.5797 1.00901ZM16.3079 14.2086C16.2539 14.1006 13.6923 12.8204 13.9308 10.3589C14.1693 7.89626 15.8152 7.22126 15.841 7.14813C15.8669 7.07501 15.1694 6.25938 14.4303 5.84651C13.8876 5.55542 13.287 5.38864 12.6719 5.35826C12.5504 5.35488 12.1285 5.25138 11.2612 5.48876C10.6897 5.64513 9.40154 6.15138 9.04717 6.17163C8.69167 6.19188 7.63417 5.58438 6.49679 5.42351C5.76892 5.28288 4.99717 5.57088 4.44479 5.79251C3.89354 6.01301 2.84504 6.64076 2.11154 8.30913C1.37804 9.97638 1.76167 12.6179 2.03617 13.4391C2.31067 14.2593 2.73929 15.6036 3.46829 16.5846C4.11629 17.6916 4.97579 18.46 5.33467 18.721C5.69354 18.982 6.70604 19.1553 7.40804 18.7964C7.97279 18.4499 8.99204 18.2508 9.39479 18.2654C9.79642 18.28 10.5884 18.4386 11.3995 18.8718C12.0419 19.0934 12.6494 19.0011 13.258 18.7536C13.8667 18.505 14.7475 17.5623 15.7758 15.6509C16.1662 14.7621 16.3439 14.2818 16.3079 14.2086Z" fill="black"/>
</g>
<defs>
<filter id="filter0_d_3_4" x="0.6875" y="0" width="16.625" height="20.0001" filterUnits="userSpaceOnUse" color-interpolation-filters="sRGB">
<feFlood flood-opacity="0" result="BackgroundImageFix"/>
<feColorMatrix in="SourceAlpha" type="matrix" values="0 0 0 0 0 0 0 0 0 0 0 0 0 0 0 0 0 0 127 0" result="hardAlpha"/>
<feOffset/>
<feGaussianBlur stdDeviation="0.5"/>
<feComposite in2="hardAlpha" operator="out"/>
<feColorMatrix type="matrix" values="0 0 0 0 0 0 0 0 0 0 0 0 0 0 0 0 0 0 1 0"/>
<feBlend mode="normal" in2="BackgroundImageFix" result="effect1_dropShadow_3_4"/>
<feBlend mode="normal" in="SourceGraphic" in2="effect1_dropShadow_3_4" result="shape"/>
</filter>
</defs>
</svg>
