<svg width="1032" height="1521" viewBox="0 0 1032 1521" fill="none" xmlns="http://www.w3.org/2000/svg">
<path d="M796.457 6.86584C767.258 31.7544 772.691 21.4049 733.36 16.7157C688.608 -12.4291 667.845 85.8703 649.211 31.0322C594.332 38.163 536.078 56.0035 484.133 73.9055C430.931 86.0584 386.844 112.394 351.5 154L348.852 157.271L323.176 191.259C319.876 197.142 317.158 203.301 314.385 209.46C303.959 297.921 205.804 296.821 139.995 328.757C83.7208 348.735 16.0025 379.117 9.03418 447.023C23.2038 443.944 78.0712 379.41 121.284 373.098C148.792 370.878 175.831 364.441 201.547 354.37L353.27 326.251V325.696C360.895 324.864 368.466 323.477 375.953 321.812V322.644L590.696 296.064C587.175 298.561 583.348 301.724 579.826 304.86L359.726 347.805V347.25L344.391 351.135L282.836 364.924C270.663 366.034 258.323 368.087 248.354 369.835C185.55 387.149 111.305 384.069 59.7254 427.978C73.2295 453.81 148.5 439.216 185.843 435.914C190.391 435.082 195.465 434.248 200.068 433.416L202.565 432.861C253.628 424.565 306.083 424.066 355.241 439.326H355.796C373.016 444.793 389.524 452.229 405.025 461.497C476.045 502.828 563.791 517.804 622.705 577.267C680.445 639.447 676.922 724.973 667.018 804.481L664.523 824.68C663.691 831.644 662.581 838.637 661.583 845.379C631.502 1006.15 551.531 1153.71 526.586 1316.1C521.816 1377.99 511.696 1457.93 503.932 1508.29C526.393 1501.61 538.779 1400.97 543.843 1434.37C620.192 1298.86 707.677 1169.94 805.395 1048.95C867.977 975.246 929.9 897.722 1004.37 836.494C1054.62 797.733 1038.7 722.706 1043.77 667.499C1060.62 599.52 1050.67 531.833 1039.36 463.927C1016.4 393.232 1008.69 319.451 977.288 251.544C929.377 208.892 928.202 131.882 881.689 94.8097C874.784 99.0549 870.183 101.054 867.022 102.164L862.029 102.718H861.475C854.875 95.7541 926.625 20.7901 860.089 50.4483C857.593 11.0261 797.339 41.2881 796.457 6.86584ZM514.214 167.051C537.922 167.605 556.327 176.595 561.537 191.634C569.911 215.857 541.516 247.06 498 262.109C454.421 277.148 412.308 270.102 403.942 245.879C395.568 221.656 423.908 189.936 467.479 174.889C482.48 169.534 498.295 166.884 514.214 167.051Z" stroke="#FF6600" stroke-width="6"/>
</svg>
